<mxfile host="app.diagrams.net" modified="2024-05-17T11:35:17.977Z" agent="Mozilla/5.0 (Windows NT 10.0; Win64; x64; rv:125.0) Gecko/20100101 Firefox/125.0" etag="F1oN8VWi7PJBCVTu-tQn" version="24.3.0" type="device">
  <diagram name="Page-1" id="UZDIohZb832ZzAx-qdCl">
    <mxGraphModel dx="737" dy="323" grid="1" gridSize="10" guides="1" tooltips="1" connect="1" arrows="1" fold="1" page="1" pageScale="1" pageWidth="1100" pageHeight="850" math="0" shadow="0">
      <root>
        <mxCell id="0" />
        <mxCell id="1" parent="0" />
        <mxCell id="KpkXiwWerwjlw7Jq8rpJ-10" value="&lt;div&gt;Hardware Data Diode&lt;/div&gt;&lt;div&gt;&lt;br&gt;&lt;/div&gt;&lt;div&gt;&lt;br&gt;&lt;/div&gt;&lt;div&gt;&lt;br&gt;&lt;/div&gt;&lt;div&gt;&lt;br&gt;&lt;/div&gt;&lt;div&gt;&lt;br&gt;&lt;/div&gt;&lt;div&gt;&lt;br&gt;&lt;/div&gt;&lt;div&gt;&lt;br&gt;&lt;/div&gt;" style="rounded=1;whiteSpace=wrap;html=1;" vertex="1" parent="1">
          <mxGeometry x="185" y="78" width="290" height="132" as="geometry" />
        </mxCell>
        <mxCell id="KpkXiwWerwjlw7Jq8rpJ-1" value="&lt;div&gt;Upstream&lt;/div&gt;&lt;div&gt;Transceiver&lt;br&gt;&lt;/div&gt;" style="rounded=1;whiteSpace=wrap;html=1;" vertex="1" parent="1">
          <mxGeometry x="209" y="118" width="100" height="50" as="geometry" />
        </mxCell>
        <mxCell id="KpkXiwWerwjlw7Jq8rpJ-2" value="&lt;div&gt;Downstream&lt;/div&gt;&lt;div&gt;Transceiver&lt;br&gt;&lt;/div&gt;" style="rounded=1;whiteSpace=wrap;html=1;" vertex="1" parent="1">
          <mxGeometry x="355" y="118" width="100" height="50" as="geometry" />
        </mxCell>
        <mxCell id="KpkXiwWerwjlw7Jq8rpJ-3" value="" style="endArrow=classic;html=1;rounded=0;exitX=1;exitY=0.5;exitDx=0;exitDy=0;entryX=0;entryY=0.5;entryDx=0;entryDy=0;" edge="1" parent="1" source="KpkXiwWerwjlw7Jq8rpJ-1" target="KpkXiwWerwjlw7Jq8rpJ-2">
          <mxGeometry width="50" height="50" relative="1" as="geometry">
            <mxPoint x="295" y="197.99999999999994" as="sourcePoint" />
            <mxPoint x="445" y="263" as="targetPoint" />
          </mxGeometry>
        </mxCell>
        <mxCell id="KpkXiwWerwjlw7Jq8rpJ-4" value="" style="endArrow=classic;html=1;rounded=0;entryX=0;entryY=0.25;entryDx=0;entryDy=0;" edge="1" parent="1" target="KpkXiwWerwjlw7Jq8rpJ-1">
          <mxGeometry width="50" height="50" relative="1" as="geometry">
            <mxPoint x="135" y="130" as="sourcePoint" />
            <mxPoint x="405" y="210" as="targetPoint" />
          </mxGeometry>
        </mxCell>
        <mxCell id="KpkXiwWerwjlw7Jq8rpJ-5" value="" style="endArrow=classic;html=1;rounded=0;entryX=0;entryY=0.75;entryDx=0;entryDy=0;" edge="1" parent="1" target="KpkXiwWerwjlw7Jq8rpJ-1">
          <mxGeometry width="50" height="50" relative="1" as="geometry">
            <mxPoint x="135" y="156" as="sourcePoint" />
            <mxPoint x="405" y="210" as="targetPoint" />
          </mxGeometry>
        </mxCell>
        <mxCell id="KpkXiwWerwjlw7Jq8rpJ-6" value="&lt;div&gt;Bidirectional&lt;/div&gt;&lt;div&gt;Upstream&lt;br&gt;&lt;/div&gt;" style="text;html=1;align=center;verticalAlign=middle;whiteSpace=wrap;rounded=0;" vertex="1" parent="1">
          <mxGeometry x="90" y="160" width="85" height="30" as="geometry" />
        </mxCell>
        <mxCell id="KpkXiwWerwjlw7Jq8rpJ-7" value="&lt;div&gt;Unidirectional&lt;/div&gt;&lt;div&gt;Downstream&lt;br&gt;&lt;/div&gt;" style="text;html=1;align=center;verticalAlign=middle;whiteSpace=wrap;rounded=0;" vertex="1" parent="1">
          <mxGeometry x="487" y="160" width="92" height="30" as="geometry" />
        </mxCell>
        <mxCell id="KpkXiwWerwjlw7Jq8rpJ-8" value="" style="endArrow=classic;html=1;rounded=0;exitX=1;exitY=0.25;exitDx=0;exitDy=0;" edge="1" parent="1" source="KpkXiwWerwjlw7Jq8rpJ-2">
          <mxGeometry width="50" height="50" relative="1" as="geometry">
            <mxPoint x="355" y="260" as="sourcePoint" />
            <mxPoint x="525" y="130" as="targetPoint" />
          </mxGeometry>
        </mxCell>
        <mxCell id="KpkXiwWerwjlw7Jq8rpJ-9" value="" style="endArrow=classic;html=1;rounded=0;exitX=1;exitY=0.75;exitDx=0;exitDy=0;" edge="1" parent="1" source="KpkXiwWerwjlw7Jq8rpJ-2">
          <mxGeometry width="50" height="50" relative="1" as="geometry">
            <mxPoint x="355" y="260" as="sourcePoint" />
            <mxPoint x="525" y="156" as="targetPoint" />
          </mxGeometry>
        </mxCell>
        <mxCell id="KpkXiwWerwjlw7Jq8rpJ-11" value="" style="triangle;whiteSpace=wrap;html=1;" vertex="1" parent="1">
          <mxGeometry x="322.5" y="170" width="15" height="20" as="geometry" />
        </mxCell>
        <mxCell id="KpkXiwWerwjlw7Jq8rpJ-12" value="" style="endArrow=none;html=1;rounded=0;" edge="1" parent="1">
          <mxGeometry width="50" height="50" relative="1" as="geometry">
            <mxPoint x="305" y="179.66000000000003" as="sourcePoint" />
            <mxPoint x="355" y="179.66000000000003" as="targetPoint" />
          </mxGeometry>
        </mxCell>
        <mxCell id="KpkXiwWerwjlw7Jq8rpJ-13" value="" style="endArrow=none;html=1;rounded=0;" edge="1" parent="1">
          <mxGeometry width="50" height="50" relative="1" as="geometry">
            <mxPoint x="337.5" y="190" as="sourcePoint" />
            <mxPoint x="337.5" y="170" as="targetPoint" />
          </mxGeometry>
        </mxCell>
      </root>
    </mxGraphModel>
  </diagram>
</mxfile>
